{
  "source": "C:\\Users\\Peter\\Desktop\\stuff\\MIUN\\quantitative_research\\video_compression\\videos\\BVI-HD\\BVI-HD_CDVL_videos\\ORIG\\BricksLeaves_1920x1080_60fps.mp4",
  "output": "C:\\Users\\Peter\\Desktop\\stuff\\MIUN\\quantitative_research\\video_compression\\compressed_videos\\BVI-HD\\av1\\2.5\\BricksLeaves_1920x1080_60fps_av1.mkv",
  "codec": "av1",
  "ok": "Input #0, mov,mp4,m4a,3gp,3g2,mj2, from 'C:\\Users\\Peter\\Desktop\\stuff\\MIUN\\quantitative_research\\video_compression\\videos\\BVI-HD\\BVI-HD_CDVL_videos\\ORIG\\BricksLeaves_1920x1080_60fps.mp4':\n  Metadata:\n    major_brand     : isom\n    minor_version   : 512\n    compatible_brands: isomiso2avc1mp41\n    encoder         : Lavf54.28.101\n  Duration: 00:00:05.00, start: 0.000000, bitrate: 524627 kb/s\n  Stream #0:0[0x1](und): Video: h264 (High 4:4:4 Predictive) (avc1 / 0x31637661), yuv420p(progressive), 1920x1080, 524622 kb/s, 60 fps, 60 tbr, 60 tbn (default)\n    Metadata:\n      handler_name    : VideoHandler\n      vendor_id       : [0][0][0][0]\n[out#0/matroska @ 00000211d9e890c0] Codec AVOption b:a (set bitrate (in bits/s)) has not been used for any stream. The most likely reason is either wrong type (e.g. a video option with no video streams) or that it is a private option of some decoder which was not actually used for any stream.\nStream mapping:\n  Stream #0:0 -> #0:0 (h264 (native) -> av1 (libsvtav1))\nPress [q] to stop, [?] for help\nSvt[info]: -------------------------------------------\nSvt[info]: SVT [version]:\tSVT-AV1 Encoder Lib v3.1.0-19-g6ecfe8ec\nSvt[info]: SVT [build]  :\tGCC 15.2.0\t 64 bit\nSvt[info]: LIB Build date: Aug 17 2025 11:37:13\nSvt[info]: -------------------------------------------\nSvt[info]: Level of Parallelism: 5\nSvt[info]: Number of PPCS 93\nSvt[info]: [asm level on system : up to avx2]\nSvt[info]: [asm level selected : up to avx2]\nSvt[info]: -------------------------------------------\nSvt[info]: SVT [config]: main profile\ttier (auto)\tlevel (auto)\nSvt[info]: SVT [config]: width / height / fps numerator / fps denominator \t\t: 1920 / 1080 / 60 / 1\nSvt[info]: SVT [config]: bit-depth / color format \t\t\t\t\t: 8 / YUV420\nSvt[info]: SVT [config]: preset / tune / pred struct \t\t\t\t\t: 4 / PSNR / random access\nSvt[info]: SVT [config]: gop size / mini-gop size / key-frame type \t\t\t: 321 / 16 / key frame\nSvt[info]: SVT [config]: BRC mode / target bitrate (kbps)\t\t\t\t: VBR / 2500 \nSvt[info]: SVT [config]: AQ mode / Variance Boost \t\t\t\t\t: 2 / 0\nSvt[info]: SVT [config]: sharpness / luminance-based QP bias \t\t\t\t: 0 / 0\nSvt[info]: SVT [config]: QP scale compress strength \t\t\t\t\t: 0\nSvt[info]: -------------------------------------------\nOutput #0, matroska, to 'C:\\Users\\Peter\\Desktop\\stuff\\MIUN\\quantitative_research\\video_compression\\compressed_videos\\BVI-HD\\av1\\2.5\\BricksLeaves_1920x1080_60fps_av1.mkv':\n  Metadata:\n    major_brand     : isom\n    minor_version   : 512\n    compatible_brands: isomiso2avc1mp41\n    encoder         : Lavf62.3.100\n  Stream #0:0(und): Video: av1 (AV01 / 0x31305641), yuv420p(tv, progressive), 1920x1080, q=2-31, 2500 kb/s, 60 fps, 1k tbn (default)\n    Metadata:\n      encoder         : Lavc62.11.100 libsvtav1\n      handler_name    : VideoHandler\n      vendor_id       : [0][0][0][0]\n    Side data:\n      cpb: bitrate max/min/avg: 0/0/2500000 buffer size: 2500000 vbv_delay: N/A\nframe=    0 fps=0.0 q=0.0 size=       0KiB time=N/A bitrate=N/A speed=N/A elapsed=0:00:01.06    \nframe=    0 fps=0.0 q=0.0 size=       0KiB time=N/A bitrate=N/A speed=N/A elapsed=0:00:01.60    \nframe=    0 fps=0.0 q=0.0 size=       0KiB time=N/A bitrate=N/A speed=N/A elapsed=0:00:02.14    \nframe=    0 fps=0.0 q=0.0 size=       0KiB time=N/A bitrate=N/A speed=N/A elapsed=0:00:02.77    \nframe=    0 fps=0.0 q=0.0 size=       0KiB time=N/A bitrate=N/A speed=N/A elapsed=0:00:03.39    \nframe=    0 fps=0.0 q=0.0 size=       0KiB time=N/A bitrate=N/A speed=N/A elapsed=0:00:03.95    \nframe=    0 fps=0.0 q=0.0 size=       0KiB time=N/A bitrate=N/A speed=N/A elapsed=0:00:04.46    \nframe=    0 fps=0.0 q=0.0 size=       0KiB time=N/A bitrate=N/A speed=N/A elapsed=0:00:04.99    \nframe=    0 fps=0.0 q=0.0 size=       0KiB time=N/A bitrate=N/A speed=N/A elapsed=0:00:05.51    \nframe=    0 fps=0.0 q=0.0 size=       0KiB time=N/A bitrate=N/A speed=N/A elapsed=0:00:06.06    \nframe=    0 fps=0.0 q=0.0 size=       0KiB time=N/A bitrate=N/A speed=N/A elapsed=0:00:06.63    \nframe=    0 fps=0.0 q=0.0 size=       0KiB time=N/A bitrate=N/A speed=N/A elapsed=0:00:07.16    \nframe=    0 fps=0.0 q=0.0 size=       0KiB time=N/A bitrate=N/A speed=N/A elapsed=0:00:07.71    \nframe=    0 fps=0.0 q=0.0 size=       0KiB time=N/A bitrate=N/A speed=N/A elapsed=0:00:08.23    \nframe=    0 fps=0.0 q=0.0 size=       0KiB time=N/A bitrate=N/A speed=N/A elapsed=0:00:08.82    \nframe=    0 fps=0.0 q=0.0 size=       0KiB time=N/A bitrate=N/A speed=N/A elapsed=0:00:09.41    \nframe=    0 fps=0.0 q=0.0 size=       0KiB time=N/A bitrate=N/A speed=N/A elapsed=0:00:09.95    \nframe=    0 fps=0.0 q=0.0 size=       0KiB time=N/A bitrate=N/A speed=N/A elapsed=0:00:10.49    \nframe=    0 fps=0.0 q=0.0 size=       0KiB time=N/A bitrate=N/A speed=N/A elapsed=0:00:11.02    \nframe=    0 fps=0.0 q=0.0 size=       0KiB time=N/A bitrate=N/A speed=N/A elapsed=0:00:11.58    \nframe=    0 fps=0.0 q=0.0 size=       0KiB time=N/A bitrate=N/A speed=N/A elapsed=0:00:12.12    \nframe=    0 fps=0.0 q=0.0 size=       0KiB time=N/A bitrate=N/A speed=N/A elapsed=0:00:12.71    \nframe=    0 fps=0.0 q=0.0 size=       0KiB time=N/A bitrate=N/A speed=N/A elapsed=0:00:13.27    \nframe=    0 fps=0.0 q=0.0 size=       0KiB time=N/A bitrate=N/A speed=N/A elapsed=0:00:13.81    \nframe=    0 fps=0.0 q=0.0 size=       0KiB time=N/A bitrate=N/A speed=N/A elapsed=0:00:14.37    \nframe=    0 fps=0.0 q=0.0 size=       0KiB time=N/A bitrate=N/A speed=N/A elapsed=0:00:14.91    \nframe=    0 fps=0.0 q=0.0 size=       0KiB time=N/A bitrate=N/A speed=N/A elapsed=0:00:15.50    \nframe=    0 fps=0.0 q=0.0 size=       0KiB time=N/A bitrate=N/A speed=N/A elapsed=0:00:16.12    \nframe=    0 fps=0.0 q=0.0 size=       0KiB time=N/A bitrate=N/A speed=N/A elapsed=0:00:16.70    \nframe=    0 fps=0.0 q=0.0 size=       0KiB time=N/A bitrate=N/A speed=N/A elapsed=0:00:17.23    \nframe=    0 fps=0.0 q=0.0 size=       0KiB time=N/A bitrate=N/A speed=N/A elapsed=0:00:17.82    \nframe=    0 fps=0.0 q=0.0 size=       0KiB time=N/A bitrate=N/A speed=N/A elapsed=0:00:18.39    \nframe=    0 fps=0.0 q=0.0 size=       0KiB time=N/A bitrate=N/A speed=N/A elapsed=0:00:18.92    \nframe=    0 fps=0.0 q=0.0 size=       0KiB time=N/A bitrate=N/A speed=N/A elapsed=0:00:19.50    \nframe=    0 fps=0.0 q=0.0 size=       0KiB time=N/A bitrate=N/A speed=N/A elapsed=0:00:20.09    \nframe=    0 fps=0.0 q=0.0 size=       0KiB time=N/A bitrate=N/A speed=N/A elapsed=0:00:20.65    \nframe=    0 fps=0.0 q=0.0 size=       0KiB time=N/A bitrate=N/A speed=N/A elapsed=0:00:21.18    \nframe=    0 fps=0.0 q=0.0 size=       0KiB time=N/A bitrate=N/A speed=N/A elapsed=0:00:21.73    \nframe=    0 fps=0.0 q=0.0 size=       0KiB time=N/A bitrate=N/A speed=N/A elapsed=0:00:22.25    \nframe=    0 fps=0.0 q=0.0 size=       0KiB time=N/A bitrate=N/A speed=N/A elapsed=0:00:22.77    \nframe=    0 fps=0.0 q=0.0 size=       0KiB time=N/A bitrate=N/A speed=N/A elapsed=0:00:23.29    \nframe=    0 fps=0.0 q=0.0 size=       0KiB time=N/A bitrate=N/A speed=N/A elapsed=0:00:23.82    \nframe=    0 fps=0.0 q=0.0 size=       0KiB time=N/A bitrate=N/A speed=N/A elapsed=0:00:24.34    \nframe=    0 fps=0.0 q=0.0 size=       0KiB time=N/A bitrate=N/A speed=N/A elapsed=0:00:24.87    \nframe=    0 fps=0.0 q=0.0 size=       0KiB time=N/A bitrate=N/A speed=N/A elapsed=0:00:25.39    \nframe=    0 fps=0.0 q=0.0 size=       0KiB time=N/A bitrate=N/A speed=N/A elapsed=0:00:25.91    \nframe=    0 fps=0.0 q=0.0 size=       0KiB time=N/A bitrate=N/A speed=N/A elapsed=0:00:26.42    \nframe=    0 fps=0.0 q=0.0 size=       0KiB time=N/A bitrate=N/A speed=N/A elapsed=0:00:26.95    \nframe=    0 fps=0.0 q=0.0 size=       0KiB time=N/A bitrate=N/A speed=N/A elapsed=0:00:27.49    \nframe=    0 fps=0.0 q=0.0 size=       0KiB time=N/A bitrate=N/A speed=N/A elapsed=0:00:28.03    \nframe=    0 fps=0.0 q=0.0 size=       0KiB time=N/A bitrate=N/A speed=N/A elapsed=0:00:28.55    \nframe=    0 fps=0.0 q=0.0 size=       0KiB time=N/A bitrate=N/A speed=N/A elapsed=0:00:29.07    \nframe=    0 fps=0.0 q=0.0 size=       0KiB time=N/A bitrate=N/A speed=N/A elapsed=0:00:29.58    \nframe=    0 fps=0.0 q=0.0 size=       0KiB time=N/A bitrate=N/A speed=N/A elapsed=0:00:30.12    \nframe=    0 fps=0.0 q=0.0 size=       0KiB time=N/A bitrate=N/A speed=N/A elapsed=0:00:30.64    \nframe=    0 fps=0.0 q=0.0 size=       0KiB time=N/A bitrate=N/A speed=N/A elapsed=0:00:31.17    \nframe=    0 fps=0.0 q=0.0 size=       0KiB time=N/A bitrate=N/A speed=N/A elapsed=0:00:31.71    \nframe=    0 fps=0.0 q=0.0 size=       0KiB time=N/A bitrate=N/A speed=N/A elapsed=0:00:32.23    \nframe=    0 fps=0.0 q=0.0 size=       0KiB time=N/A bitrate=N/A speed=N/A elapsed=0:00:32.76    \nframe=    0 fps=0.0 q=0.0 size=       0KiB time=N/A bitrate=N/A speed=N/A elapsed=0:00:33.26    \nframe=    0 fps=0.0 q=0.0 size=       0KiB time=N/A bitrate=N/A speed=N/A elapsed=0:00:33.79    \nframe=    0 fps=0.0 q=0.0 size=       0KiB time=N/A bitrate=N/A speed=N/A elapsed=0:00:34.34    \nframe=    0 fps=0.0 q=0.0 size=       0KiB time=N/A bitrate=N/A speed=N/A elapsed=0:00:34.86    \nframe=    0 fps=0.0 q=0.0 size=       0KiB time=N/A bitrate=N/A speed=N/A elapsed=0:00:35.37    \nframe=    0 fps=0.0 q=0.0 size=       0KiB time=N/A bitrate=N/A speed=N/A elapsed=0:00:35.94    \nframe=    0 fps=0.0 q=0.0 size=       0KiB time=N/A bitrate=N/A speed=N/A elapsed=0:00:36.55    \nframe=    0 fps=0.0 q=0.0 size=       0KiB time=N/A bitrate=N/A speed=N/A elapsed=0:00:37.06    \nframe=    0 fps=0.0 q=0.0 size=       0KiB time=N/A bitrate=N/A speed=N/A elapsed=0:00:37.58    \nframe=    0 fps=0.0 q=0.0 size=       0KiB time=N/A bitrate=N/A speed=N/A elapsed=0:00:38.12    \nframe=    0 fps=0.0 q=0.0 size=       0KiB time=N/A bitrate=N/A speed=N/A elapsed=0:00:38.65    \nframe=    0 fps=0.0 q=0.0 size=       0KiB time=N/A bitrate=N/A speed=N/A elapsed=0:00:39.19    \nframe=    0 fps=0.0 q=0.0 size=       0KiB time=N/A bitrate=N/A speed=N/A elapsed=0:00:39.71    \nframe=    0 fps=0.0 q=0.0 size=       0KiB time=N/A bitrate=N/A speed=N/A elapsed=0:00:40.25    \nframe=    0 fps=0.0 q=0.0 size=       0KiB time=N/A bitrate=N/A speed=N/A elapsed=0:00:40.82    \nframe=    1 fps=0.0 q=17.0 size=       1KiB time=00:00:00.00 bitrate=N/A speed=   0x elapsed=0:00:41.35    \nframe=    1 fps=0.0 q=17.0 size=       1KiB time=00:00:00.00 bitrate=N/A speed=   0x elapsed=0:00:41.89    \nframe=    6 fps=0.1 q=51.0 size=       1KiB time=00:00:00.06 bitrate=  85.4kbits/s speed=0.00157x elapsed=0:00:42.40    \nframe=   12 fps=0.3 q=51.0 size=       1KiB time=00:00:00.18 bitrate=  31.1kbits/s speed=0.00427x elapsed=0:00:42.97    \nframe=   18 fps=0.4 q=51.0 size=       1KiB time=00:00:00.28 bitrate=  20.1kbits/s speed=0.00651x elapsed=0:00:43.52    \nframe=   23 fps=0.5 q=47.0 size=       1KiB time=00:00:00.36 bitrate=  15.5kbits/s speed=0.00832x elapsed=0:00:44.05    \nframe=   28 fps=0.6 q=51.0 size=       1KiB time=00:00:00.45 bitrate=  12.7kbits/s speed=0.0101x elapsed=0:00:44.60    \nframe=   35 fps=0.8 q=51.0 size=       1KiB time=00:00:00.56 bitrate=  10.1kbits/s speed=0.0126x elapsed=0:00:45.14    \nframe=   39 fps=0.9 q=51.0 size=       1KiB time=00:00:00.63 bitrate=   9.0kbits/s speed=0.0139x elapsed=0:00:45.67    \nframe=   43 fps=0.9 q=49.0 size=       1KiB time=00:00:00.70 bitrate=   8.1kbits/s speed=0.0151x elapsed=0:00:46.23    \nframe=   50 fps=1.1 q=52.0 size=       1KiB time=00:00:00.81 bitrate=   7.0kbits/s speed=0.0175x elapsed=0:00:46.79    \nframe=   54 fps=1.1 q=52.0 size=       1KiB time=00:00:00.88 bitrate=   6.4kbits/s speed=0.0187x elapsed=0:00:47.33    \nframe=   59 fps=1.2 q=49.0 size=       1KiB time=00:00:00.96 bitrate=   5.9kbits/s speed=0.0202x elapsed=0:00:47.85    \nframe=   65 fps=1.3 q=37.0 size=       1KiB time=00:00:01.06 bitrate=   5.3kbits/s speed=0.022x elapsed=0:00:48.39    \nframe=   70 fps=1.4 q=52.0 size=       1KiB time=00:00:01.15 bitrate=   5.0kbits/s speed=0.0235x elapsed=0:00:48.92    \nframe=   74 fps=1.5 q=52.0 size=       1KiB time=00:00:01.21 bitrate=   4.7kbits/s speed=0.0246x elapsed=0:00:49.48    \nframe=   79 fps=1.6 q=49.0 size=       1KiB time=00:00:01.30 bitrate=   4.4kbits/s speed=0.026x elapsed=0:00:50.02    \nframe=   85 fps=1.7 q=49.0 size=       1KiB time=00:00:01.40 bitrate=   4.1kbits/s speed=0.0277x elapsed=0:00:50.56    \nframe=   87 fps=1.7 q=47.0 size=       1KiB time=00:00:01.43 bitrate=   4.0kbits/s speed=0.028x elapsed=0:00:51.10    \nframe=   93 fps=1.8 q=46.0 size=       1KiB time=00:00:01.51 bitrate=   3.8kbits/s speed=0.0294x elapsed=0:00:51.63    \nframe=   99 fps=1.9 q=51.0 size=       1KiB time=00:00:01.63 bitrate=   3.5kbits/s speed=0.0313x elapsed=0:00:52.20    \nframe=  103 fps=2.0 q=51.0 size=       1KiB time=00:00:01.70 bitrate=   3.4kbits/s speed=0.0322x elapsed=0:00:52.73    \nframe=  107 fps=2.0 q=50.0 size=       1KiB time=00:00:01.76 bitrate=   3.2kbits/s speed=0.0331x elapsed=0:00:53.29    \nframe=  113 fps=2.1 q=35.0 size=       1KiB time=00:00:01.86 bitrate=   3.1kbits/s speed=0.0347x elapsed=0:00:53.84    \nframe=  118 fps=2.2 q=54.0 size=       1KiB time=00:00:01.95 bitrate=   2.9kbits/s speed=0.0359x elapsed=0:00:54.38    \nframe=  123 fps=2.2 q=51.0 size=       1KiB time=00:00:02.01 bitrate=   2.8kbits/s speed=0.0367x elapsed=0:00:54.91    \nframe=  128 fps=2.3 q=54.0 size=       1KiB time=00:00:02.11 bitrate=   2.7kbits/s speed=0.0382x elapsed=0:00:55.46    \nframe=  133 fps=2.4 q=50.0 size=       1KiB time=00:00:02.20 bitrate=   2.6kbits/s speed=0.0393x elapsed=0:00:56.01    \nframe=  136 fps=2.4 q=54.0 size=       1KiB time=00:00:02.23 bitrate=   2.6kbits/s speed=0.0395x elapsed=0:00:56.54    \nframe=  140 fps=2.5 q=54.0 size=       1KiB time=00:00:02.31 bitrate=   2.5kbits/s speed=0.0406x elapsed=0:00:57.09    \nframe=  147 fps=2.6 q=53.0 size=       1KiB time=00:00:02.43 bitrate=   2.3kbits/s speed=0.0422x elapsed=0:00:57.63    \nframe=  151 fps=2.6 q=53.0 size=       1KiB time=00:00:02.50 bitrate=   2.3kbits/s speed=0.043x elapsed=0:00:58.15    \nframe=  155 fps=2.6 q=51.0 size=       1KiB time=00:00:02.56 bitrate=   2.2kbits/s speed=0.0437x elapsed=0:00:58.74    \nframe=  161 fps=2.7 q=38.0 size=       1KiB time=00:00:02.66 bitrate=   2.1kbits/s speed=0.045x elapsed=0:00:59.31    \nframe=  166 fps=2.8 q=54.0 size=       1KiB time=00:00:02.75 bitrate=   2.1kbits/s speed=0.0459x elapsed=0:00:59.90    \nframe=  169 fps=2.8 q=47.0 size=       1KiB time=00:00:02.80 bitrate=   2.0kbits/s speed=0.0463x elapsed=0:01:00.48    \nframe=  173 fps=2.8 q=48.0 size=       1KiB time=00:00:02.85 bitrate=   2.0kbits/s speed=0.0467x elapsed=0:01:01.01    \nframe=  178 fps=2.9 q=55.0 size=       1KiB time=00:00:02.95 bitrate=   1.9kbits/s speed=0.0479x elapsed=0:01:01.54    \nframe=  182 fps=2.9 q=55.0 size=       1KiB time=00:00:03.01 bitrate=   1.9kbits/s speed=0.0486x elapsed=0:01:02.08    \nframe=  187 fps=3.0 q=52.0 size=       1KiB time=00:00:03.10 bitrate=   1.8kbits/s speed=0.0495x elapsed=0:01:02.66    \nframe=  195 fps=3.1 q=56.0 size=       1KiB time=00:00:03.20 bitrate=   1.8kbits/s speed=0.0506x elapsed=0:01:03.20    \nframe=  198 fps=3.1 q=58.0 size=       1KiB time=00:00:03.28 bitrate=   1.7kbits/s speed=0.0514x elapsed=0:01:03.83    \nframe=  202 fps=3.1 q=58.0 size=       1KiB time=00:00:03.35 bitrate=   1.7kbits/s speed=0.052x elapsed=0:01:04.45    \nframe=  205 fps=3.2 q=52.0 size=       1KiB time=00:00:03.40 bitrate=   1.7kbits/s speed=0.0523x elapsed=0:01:05.03    \nframe=  213 fps=3.2 q=56.0 size=       1KiB time=00:00:03.50 bitrate=   1.6kbits/s speed=0.0533x elapsed=0:01:05.62    \nframe=  217 fps=3.3 q=51.0 size=       1KiB time=00:00:03.60 bitrate=   1.6kbits/s speed=0.0543x elapsed=0:01:06.26    \nframe=  225 fps=3.4 q=42.0 size=       1KiB time=00:00:03.73 bitrate=   1.5kbits/s speed=0.0559x elapsed=0:01:06.79    \nframe=  235 fps=3.5 q=63.0 size=       1KiB time=00:00:03.86 bitrate=   1.5kbits/s speed=0.0574x elapsed=0:01:07.32    \nframe=  243 fps=3.6 q=63.0 size=       1KiB time=00:00:04.03 bitrate=   1.4kbits/s speed=0.0594x elapsed=0:01:07.84    \nframe=  249 fps=3.6 q=62.0 size=       1KiB time=00:00:04.13 bitrate=   1.4kbits/s speed=0.0605x elapsed=0:01:08.36    \nframe=  257 fps=3.7 q=59.0 size=       1KiB time=00:00:04.26 bitrate=   1.3kbits/s speed=0.0619x elapsed=0:01:08.92    \nframe=  263 fps=3.8 q=62.0 size=       1KiB time=00:00:04.36 bitrate=   1.3kbits/s speed=0.0628x elapsed=0:01:09.47    \nframe=  269 fps=3.8 q=62.0 size=       1KiB time=00:00:04.46 bitrate=   1.3kbits/s speed=0.0638x elapsed=0:01:10.00    \nframe=  279 fps=4.0 q=63.0 size=       1KiB time=00:00:04.63 bitrate=   1.2kbits/s speed=0.0657x elapsed=0:01:10.53    \nframe=  285 fps=4.0 q=63.0 size=       1KiB time=00:00:04.73 bitrate=   1.2kbits/s speed=0.0666x elapsed=0:01:11.11    \n[out#0/matroska @ 00000211d9e890c0] video:1446KiB audio:0KiB subtitle:0KiB other streams:0KiB global headers:0KiB muxing overhead: 0.143562%\nframe=  300 fps=4.2 q=63.0 Lsize=    1448KiB time=00:00:04.98 bitrate=2379.6kbits/s speed=0.0698x elapsed=0:01:11.36    \n",
  "seconds": 72.19834566116333,
  "probe_out": {}
}